<svg xmlns="http://www.w3.org/2000/svg" viewBox="0 0 512 512">
  <path d="m101 323l220-220c8-8 8-22 0-30-29-29-75-29-104 0l-146 146c-29 29-29 75 0 104 8 8 22 8 30 0z m269-201l62 62c29 29 29 75 0 104l-142 142 151 0c8 0 15 7 15 15 0 9-7 16-15 16l-379 0c-8 0-15-7-15-16 0-8 7-15 15-15l116 0-58-58c-9-9-9-22 0-30l220-220c8-9 21-9 30 0z m-128 272l25-25c5-5 5-14 0-19-5-5-14-5-19 0l-25 25c-5 6-5 14 0 19 6 5 14 5 19 0z m56-56l50-50c6-5 6-14 0-19-5-5-13-5-18 0l-50 50c-6 5-6 14 0 19 5 5 13 5 18 0z"/>
</svg>
