<svg fill="none" height="34" viewBox="0 0 35 34" width="35" xmlns="http://www.w3.org/2000/svg"><g fill="#ff5c16"><path d="m32.7077 32.8358-7.5389-2.262-5.6855 3.4246-3.9666-.0017-5.68877-3.4229-7.53568 2.262-2.29225-7.7973 2.29225-8.6539-2.29225-7.31659 2.29225-9.06801 11.77515 7.08875h6.8652l11.7751-7.08875 2.2923 9.06801-2.2923 7.31659 2.2923 8.6539z"/><path d="m2.29395 0 11.77515 7.09374-.4683 4.86836z"/><path d="m9.8291 25.042 5.181 3.9768-5.181 1.5551z"/><path d="m14.5961 18.467-.9957-6.5017-6.37397 4.4209-.00329-.0016v.0033l.01972 4.5506 2.58474-2.4715h.00165z"/><path d="m32.7077 0-11.7751 7.09374.4667 4.86836z"/><path d="m25.1717 25.042-5.181 3.9768 5.181 1.5551z"/><path d="m27.7761 16.3879h.0017-.0017v-.0033l-.0016.0016-6.3739-4.4209-.9958 6.5017h4.7669l2.5864 2.4715z"/></g><path d="m9.82793 30.5739-7.53568 2.2621-2.29225-7.794h9.82793z" fill="#e34807"/><path d="m14.5947 18.4653 1.4394 9.399-1.9948-5.2259-6.79955-1.6998 2.58638-2.4733h4.76687z" fill="#e34807"/><path d="m25.1724 30.5739 7.5356 2.2621 2.2923-7.794h-9.8279z" fill="#e34807"/><path d="m20.4053 18.4653-1.4395 9.399 1.9949-5.2259 6.7995-1.6998-2.588-2.4733z" fill="#e34807"/><path d="m0 25.0386 2.29225-8.6538h4.92958l.01808 4.5523 6.79949 1.6998 1.9949 5.2259-1.0254 1.151-5.18097-3.9768h-9.82793z" fill="#ff8d5d"/><path d="m35.0001 25.0386-2.2923-8.6538h-4.9295l-.0181 4.5523-6.7995 1.6998-1.9949 5.2259 1.0254 1.151 5.181-3.9768h9.8279z" fill="#ff8d5d"/><path d="m20.933 7.08887h-3.4326-3.4327l-.4666 4.86833 2.4335 15.9006h2.9315l2.4352-15.9006z" fill="#ff8d5d"/><path d="m2.29225 0-2.29225 9.06801 2.29225 7.31659h4.92958l6.37727-4.4225z" fill="#661800"/><path d="m13.1703 20.3532h-2.2331l-1.21601 1.2009 4.31991 1.0794-.8708-2.2819z" fill="#661800"/><path d="m32.7077 0 2.2922 9.06801-2.2922 7.31659h-4.9296l-6.3772-4.4225z" fill="#661800"/><path d="m21.8335 20.3532h2.2364l1.2159 1.2026-4.3249 1.0811.8726-2.2853z" fill="#661800"/><path d="m19.4822 30.8966.5094-1.8794-1.0253-1.151h-2.9331l-1.0254 1.151.5094 1.8794" fill="#661800"/><path d="m19.4816 30.8965v3.1036h-3.965v-3.1036z" fill="#c0c4cd"/><path d="m9.8291 30.5703 5.6904 3.4279v-3.1036l-.5094-1.8795z" fill="#e7ebf6"/><path d="m25.1718 30.5703-5.6904 3.4279v-3.1036l.5094-1.8795z" fill="#e7ebf6"/></svg>