<svg height="800" viewBox="0 0 1024 1024" width="800" xmlns="http://www.w3.org/2000/svg"><circle cx="512" cy="512" fill="#4a154b" r="512"/><path d="m363.6 579.5c-.1 29.7-24.1 53.7-53.8 53.8-29.7-.1-53.7-24.1-53.8-53.8.1-29.7 24.1-53.7 53.8-53.8h53.8zm27.1 0c.1-29.7 24.1-53.7 53.8-53.8 29.7.1 53.7 24.1 53.8 53.8v134.7c-.1 29.7-24.1 53.7-53.8 53.8-29.7-.1-53.7-24.1-53.8-53.8zm53.8-215.9c-29.7-.1-53.7-24.1-53.8-53.8.1-29.7 24.1-53.7 53.8-53.8 29.7.1 53.7 24.1 53.8 53.8v53.8zm0 27.1c29.7.1 53.7 24.1 53.8 53.8-.1 29.7-24.1 53.7-53.8 53.8h-134.7c-29.7-.1-53.7-24.1-53.8-53.8.1-29.7 24.1-53.7 53.8-53.8zm215.9 53.8c.1-29.7 24.1-53.7 53.8-53.8 29.7.1 53.7 24.1 53.8 53.8-.1 29.7-24.1 53.7-53.8 53.8h-53.8zm-27.1 0c-.1 29.7-24.1 53.7-53.8 53.8-29.7-.1-53.7-24.1-53.8-53.8v-134.7c.1-29.7 24.1-53.7 53.8-53.8 29.7.1 53.8 24.1 53.8 53.8zm-53.8 215.9c29.7.1 53.8 24.1 53.8 53.8-.1 29.7-24.1 53.7-53.8 53.8-29.7-.1-53.7-24.1-53.8-53.8v-53.8zm0-27.1c-29.7-.1-53.7-24.1-53.8-53.8.1-29.7 24.1-53.7 53.8-53.8h134.7c29.7.1 53.7 24.1 53.8 53.8-.1 29.7-24.1 53.8-53.8 53.8z" fill="#fff"/></svg>