<svg enable-background="new 0 0 849.6 779.3" viewBox="0 0 849.6 779.3" xmlns="http://www.w3.org/2000/svg"><circle cx="424.8" cy="391.9" fill="#ec1c24" r="387.4"/><path d="m741.3 394.1 1.1.8s-23.2-256.6-108.7-384.5c-8.2-12.3-25.7-14-36.1-3.6-24.5 24.6-64.6 90.5-104.6 200.5-21.4-3.6-43.6-5.4-66.4-5.4s-45 1.9-66.4 5.4c-40-110-80.1-175.9-104.5-200.5-10.4-10.4-27.9-8.7-36.1 3.6-85.4 127.9-108.6 384.5-108.6 384.5l1.1-.8c-7.5 22-11.6 45.1-11.6 69 0 99.5 69.5 185.9 171.7 230 46 19.8 98.6 31.1 154.5 31.1s108.4-11.3 154.4-31.1c102.3-44.1 171.8-130.6 171.8-230.1 0-23.8-4.1-46.9-11.6-68.9z" fill="#fff"/><g fill="#231f20"><path d="m9.5 601c-3 0-6-1.5-7.8-4.2-3-4.3-1.9-10.3 2.5-13.2 88.7-60.6 150.1-44 152.7-43.3 5.1 1.4 8 6.7 6.5 11.8-1.4 5-6.7 8-11.7 6.5-.7-.2-56.2-14.4-136.8 40.7-1.7 1.2-3.5 1.7-5.4 1.7z"/><path d="m59.8 674.5c-1.8 0-3.5-.5-5.2-1.5-4.4-2.8-5.7-8.7-2.8-13.1 43.7-67.7 116.5-81.3 119.6-81.8 5.1-.9 10.1 2.5 11 7.7s-2.5 10.1-7.7 11c-.9.2-67.9 13-106.9 73.4-1.8 2.7-4.9 4.3-8 4.3z"/><path d="m840.1 601c-1.8 0-3.7-.5-5.3-1.7-80.7-55.1-136.3-40.8-136.8-40.7-5 1.4-10.3-1.6-11.7-6.6s1.5-10.3 6.5-11.7c2.6-.7 64-17.3 152.7 43.3 4.3 3 5.5 8.9 2.5 13.2-1.9 2.8-4.8 4.2-7.9 4.2z"/><path d="m789.8 674.5c-3.1 0-6.2-1.5-8-4.3-39.2-60.8-106.3-73.3-106.9-73.4-5.2-.9-8.6-5.8-7.7-11s5.9-8.6 11-7.7c3.1.5 75.9 14.1 119.6 81.8 2.8 4.4 1.6 10.3-2.8 13.1-1.6 1-3.4 1.5-5.2 1.5z"/></g><path d="m345.3 437.1c-1 49-40.9 88.4-90.1 88.4s-90.2-40.4-90.2-90.2c0-14.4 3.4-27.9 9.4-39.9z" fill="#a7dff8"/><path d="m316 429.9c.2 2 .6 6 .6 8 0 32.4-26.3 58.7-58.7 58.7s-58.7-26.3-58.7-58.7c0-11.9 5.1-24.5 11.1-33.7z" fill="#231f20"/><path d="m498 437.1c1 49 40.9 88.4 90.1 88.4 49.8 0 90.2-40.4 90.2-90.2 0-14.4-3.4-27.9-9.4-39.9z" fill="#a7dff8"/><path d="m527.9 429.1c-.2 2-1.2 6.8-1.2 8.8 0 32.4 26.3 58.7 58.7 58.7s58.7-26.3 58.7-58.7c0-11.9-4.5-24.5-10.5-33.7z" fill="#231f20"/><path d="m445.8 608.1c-9 0-18.7-2.7-28.1-10-25.3 19.7-52.8 6.1-64.5-4.7-3.9-3.6-4.1-9.6-.5-13.4s9.6-4.1 13.4-.5c2.3 2.1 23.7 20.4 43.8.3 1.8-1.8 4.2-2.8 6.7-2.8h2.2c2.5 0 4.9 1 6.7 2.8 20.1 20.1 41.5 1.9 43.8-.3 3.9-3.5 9.9-3.3 13.4.6 3.5 3.8 3.3 9.8-.5 13.4-7.4 6.7-21 14.6-36.4 14.6z" fill="#231f20"/><ellipse cx="417" cy="561" fill="#f7bad5" rx="27.7" ry="13.2"/><path d="m160.7 307.6s15-166.3 70.4-249.2c5.3-7.9 16.6-9.1 23.4-2.3 15.9 16 45.6 84.7 71.6 156.4 0-.1-30.1 6.7-165.4 95.1z" fill="#f7bad5"/><path d="m695.8 307.6s-15-166.3-70.4-249.2c-5.3-7.9-16.6-9.1-23.4-2.3-15.9 16-47.2 84.7-73.1 156.4-.1-.1 47.2 6.7 166.9 95.1z" fill="#f7bad5"/><path d="m521.9 278.8c30.8-115.2-141.4-95.7-137.5-210.7.4 48.9-8.7 100.8 24.6 140.3-53.9 6.3-70.5-65.8-85.1-99.5-4.6 62.8-16.3 160.5 54.8 187.4" fill="#d5e9f8"/><path d="m535.8 278.8c35-143.3-154.2-111.2-150.4-226.2.4 48.9-6.3 95.3 26.9 134.8-53.9 6.3-74.3-59.9-89-93.6-4.6 62.8 30.7 178 128.6 202.5" fill="#fff"/></svg>